<?xml version="1.0" encoding="UTF-8" standalone="no" ?>
<!DOCTYPE svg PUBLIC "-//W3C//DTD SVG 1.1//EN" "http://www.w3.org/Graphics/SVG/1.1/DTD/svg11.dtd">
<svg xmlns="http://www.w3.org/2000/svg" xmlns:xlink="http://www.w3.org/1999/xlink" version="1.1" width="80" height="80" viewBox="0 0 1080 1080" xml:space="preserve">
<desc>Created with Fabric.js 5.2.4</desc>
<defs>
</defs>
<g transform="matrix(1 0 0 1 540 540)" id="d1db7d0b-2f65-4f1d-898d-063d177c4f6f"  >
<rect style="stroke: none; stroke-width: 1; stroke-dasharray: none; stroke-linecap: butt; stroke-dashoffset: 0; stroke-linejoin: miter; stroke-miterlimit: 4; fill: rgb(255,255,255); fill-rule: nonzero; opacity: 1; visibility: hidden;" vector-effect="non-scaling-stroke"  x="-540" y="-540" rx="0" ry="0" width="1080" height="1080" />
</g>
<g transform="matrix(1 0 0 1 540 540)" id="8e6f2639-ec32-4ebb-96df-b1176e111d41"  >
</g>
<g transform="matrix(1 0 0 1 540 540)"  >
<g style="" vector-effect="non-scaling-stroke"   >
		<g transform="matrix(0.25 0 0 -0.25 6.25 0)"  >
<path style="stroke: none; stroke-width: 1; stroke-dasharray: none; stroke-linecap: butt; stroke-dashoffset: 0; stroke-linejoin: miter; stroke-miterlimit: 4; fill: rgb(255,255,255); fill-rule: nonzero; opacity: 1;" vector-effect="non-scaling-stroke"  transform=" translate(-1679.09, -1670.28)" d="M 1398 2516 C 1328 2439 1292 2385 1251 2301 C 1219 2233 1215 2217 1217 2150 C 1218 2109 1225 2042 1233 2002 L 1247 1930 L 1186 1910 C 1045 1865 1020 1851 1020 1819 C 1020 1798 1042 1781 1048 1798 C 1050 1805 1057 1807 1062 1803 C 1069 1799 1071 1805 1067 1819 C 1063 1836 1065 1840 1076 1836 C 1086 1832 1090 1836 1088 1848 C 1083 1877 1217 1919 1320 1919 C 1432 1920 1467 1909 1517 1858 C 1566 1808 1590 1756 1590 1700 C 1590 1656 1572 1648 1536 1675 C 1513 1692 1496 1695 1505 1680 C 1508 1675 1502 1670 1490 1670 C 1478 1670 1472 1666 1475 1660 C 1478 1655 1477 1650 1472 1650 C 1468 1650 1456 1666 1447 1685 C 1438 1703 1419 1727 1405 1736 C 1384 1750 1375 1750 1350 1740 C 1333 1733 1314 1718 1308 1706 L 1297 1685 L 1320 1705 C 1333 1716 1341 1720 1337 1714 C 1334 1708 1328 1678 1325 1648 C 1320 1597 1321 1590 1342 1576 C 1354 1567 1360 1560 1355 1560 C 1350 1560 1335 1570 1322 1583 L 1297 1605 L 1309 1583 C 1343 1516 1430 1531 1455 1608 C 1461 1629 1463 1630 1474 1615 C 1480 1606 1503 1597 1524 1595 C 1545 1593 1564 1590 1566 1588 C 1568 1586 1560 1570 1550 1552 L 1530 1520 L 1416 1520 C 1293 1520 1271 1512 1269 1467 C 1268 1452 1264 1457 1256 1483 C 1241 1531 1226 1531 1222 1483 C 1217 1425 1205 1424 1191 1480 C 1174 1545 1163 1550 1155 1498 C 1151 1474 1143 1452 1137 1448 C 1131 1444 1129 1438 1133 1433 C 1144 1423 1160 1450 1160 1478 C 1160 1515 1175 1503 1188 1455 C 1203 1400 1217 1397 1225 1448 C 1235 1507 1237 1508 1249 1462 C 1261 1420 1280 1413 1280 1451 C 1280 1488 1299 1510 1331 1510 L 1362 1510 L 1334 1478 C 1291 1427 1260 1341 1295 1370 C 1309 1381 1309 1380 1300 1356 C 1287 1322 1287 1220 1299 1220 C 1304 1220 1310 1230 1312 1243 C 1315 1261 1319 1257 1338 1218 C 1351 1193 1368 1166 1376 1160 C 1388 1150 1390 1152 1390 1174 L 1390 1201 L 1422 1179 C 1439 1167 1462 1156 1474 1155 C 1490 1154 1499 1140 1513 1094 C 1528 1046 1530 1018 1525 943 C 1517 839 1531 817 1550 903 C 1575 1019 1574 1080 1546 1161 C 1532 1202 1520 1245 1520 1256 C 1520 1286 1547 1318 1590 1340 C 1611 1351 1631 1368 1633 1377 C 1636 1387 1638 1366 1639 1330 C 1641 1248 1648 1220 1666 1227 C 1674 1230 1680 1227 1680 1221 C 1680 1205 1729 1130 1739 1130 C 1744 1130 1746 1140 1742 1152 L 1737 1174 L 1765 1152 C 1794 1129 1830 1123 1830 1140 C 1830 1153 1882 1141 1892 1126 C 1896 1120 1906 1083 1915 1043 C 1929 982 1929 962 1919 911 C 1906 851 1909 832 1929 844 C 1948 856 1961 959 1958 1090 L 1955 1225 L 1925 1230 C 1879 1238 1866 1274 1881 1355 C 1888 1391 1896 1420 1900 1420 C 1903 1420 1911 1393 1918 1361 C 1949 1212 2054 1076 2202 995 C 2301 940 2327 905 2295 870 C 2257 828 2034 790 1825 790 C 1643 790 1343 806 1245 821 C 1164 833 1080 858 1080 870 C 1080 883 1105 899 1148 914 C 1194 931 1199 927 1173 897 C 1153 875 1171 881 1201 907 C 1210 915 1240 930 1266 940 L 1315 959 L 1245 959 C 1207 958 1164 954 1150 950 L 1125 942 L 1150 940 C 1169 939 1164 935 1129 924 C 1048 900 1039 863 1107 835 C 1257 771 1920 749 2164 799 C 2282 823 2315 837 2332 868 C 2354 909 2317 957 2224 1007 C 2038 1109 1930 1284 1924 1495 C 1923 1550 1919 1620 1915 1650 C 1911 1680 1908 1714 1907 1725 C 1906 1736 1897 1756 1888 1770 C 1878 1783 1870 1802 1870 1812 C 1870 1821 1866 1831 1861 1834 C 1856 1837 1839 1864 1822 1893 C 1806 1921 1783 1953 1772 1963 C 1755 1978 1753 1987 1761 2013 C 1766 2031 1775 2083 1780 2129 C 1786 2175 1798 2226 1806 2241 C 1814 2257 1818 2270 1815 2270 C 1812 2270 1815 2280 1821 2293 C 1833 2314 1845 2361 1855 2421 C 1857 2435 1868 2468 1879 2493 C 1890 2519 1897 2540 1894 2540 C 1891 2540 1840 2508 1780 2470 C 1680 2404 1640 2391 1640 2422 C 1640 2428 1629 2430 1616 2428 C 1599 2424 1593 2427 1597 2437 C 1605 2456 1589 2453 1518 2422 L 1455 2393 L 1456 2482 C 1457 2530 1454 2570 1451 2569 C 1448 2568 1424 2544 1398 2516 z M 1640 2087 C 1653 2063 1653 2059 1634 2033 C 1595 1981 1530 1998 1530 2061 C 1530 2077 1539 2099 1549 2109 C 1575 2135 1619 2124 1640 2087 z M 1346 2075 C 1365 2045 1357 1994 1330 1980 C 1306 1967 1304 1967 1286 1986 C 1270 2001 1263 2080 1277 2093 C 1292 2109 1330 2099 1346 2075 z" stroke-linecap="round" />
</g>
		<g transform="matrix(0.25 0 0 -0.25 -148.46 -2.27)"  >
<path style="stroke: none; stroke-width: 1; stroke-dasharray: none; stroke-linecap: butt; stroke-dashoffset: 0; stroke-linejoin: miter; stroke-miterlimit: 4; fill: rgb(255,255,255); fill-rule: nonzero; opacity: 1;" vector-effect="non-scaling-stroke"  transform=" translate(-1060.24, -1679.34)" d="M 1052 1773 C 1045 1771 1035 1759 1028 1747 C 1018 1727 1018 1726 1035 1740 C 1052 1754 1052 1753 1044 1730 C 1029 1684 1033 1603 1050 1630 C 1055 1637 1059 1632 1062 1616 C 1069 1583 1057 1583 1024 1618 C 1009 1633 1001 1638 1005 1630 C 1031 1579 1074 1565 1105 1596 C 1126 1618 1117 1700 1088 1748 C 1077 1765 1068 1780 1067 1779 C 1066 1779 1059 1776 1052 1773 z" stroke-linecap="round" />
</g>
		<g transform="matrix(0.25 0 0 -0.25 -151.14 18.99)"  >
<path style="stroke: none; stroke-width: 1; stroke-dasharray: none; stroke-linecap: butt; stroke-dashoffset: 0; stroke-linejoin: miter; stroke-miterlimit: 4; fill: rgb(255,255,255); fill-rule: nonzero; opacity: 1;" vector-effect="non-scaling-stroke"  transform=" translate(-1049.53, -1594.32)" d="M 982 1701 C 975 1682 970 1650 970 1629 C 970 1587 992 1566 1065 1538 C 1095 1526 1108 1514 1117 1489 C 1128 1457 1129 1457 1129 1481 C 1130 1513 1121 1521 1041 1561 C 982 1591 980 1593 980 1631 C 980 1653 985 1680 991 1691 C 997 1702 1000 1716 997 1723 C 995 1729 988 1719 982 1701 z" stroke-linecap="round" />
</g>
		<g transform="matrix(0.25 0 0 -0.25 -115.39 11.51)"  >
<path style="stroke: none; stroke-width: 1; stroke-dasharray: none; stroke-linecap: butt; stroke-dashoffset: 0; stroke-linejoin: miter; stroke-miterlimit: 4; fill: rgb(255,255,255); fill-rule: nonzero; opacity: 1;" vector-effect="non-scaling-stroke"  transform=" translate(-1192.51, -1624.25)" d="M 1174 1678 C 1170 1672 1171 1670 1176 1673 C 1182 1676 1186 1664 1186 1645 C 1186 1626 1183 1615 1179 1621 C 1170 1636 1159 1604 1166 1585 C 1172 1571 1174 1572 1185 1587 C 1196 1602 1198 1602 1204 1582 C 1218 1539 1227 1570 1217 1624 C 1207 1677 1188 1701 1174 1678 z" stroke-linecap="round" />
</g>
</g>
</g>
</svg>