<?xml version="1.0" standalone="no"?>
<!DOCTYPE svg PUBLIC "-//W3C//DTD SVG 20010904//EN"
 "http://www.w3.org/TR/2001/REC-SVG-20010904/DTD/svg10.dtd">
<svg version="1.0" xmlns="http://www.w3.org/2000/svg"
 width="80px" height="80px" viewBox="0 0 320.000000 320.000000"
 preserveAspectRatio="xMidYMid meet">

<g transform="translate(0.000000,320.000000) scale(0.100000,-0.100000)"
fill="#000000" stroke="none">
<path d="M1398 2516 c-70 -77 -106 -131 -147 -215 -32 -68 -36 -84 -34 -151 1
-41 8 -108 16 -148 l14 -72 -61 -20 c-141 -45 -166 -59 -166 -91 0 -21 22 -38
28 -21 2 7 9 9 14 5 7 -4 9 2 5 16 -4 17 -2 21 9 17 10 -4 14 0 12 12 -5 29
129 71 232 71 112 1 147 -10 197 -61 49 -50 73 -102 73 -158 0 -44 -18 -52
-54 -25 -23 17 -40 20 -31 5 3 -5 -3 -10 -15 -10 -12 0 -18 -4 -15 -10 3 -5 2
-10 -3 -10 -4 0 -16 16 -25 35 -9 18 -28 42 -42 51 -21 14 -30 14 -55 4 -17
-7 -36 -22 -42 -34 l-11 -21 23 20 c13 11 21 15 17 9 -3 -6 -9 -36 -12 -66 -5
-51 -4 -58 17 -72 12 -9 18 -16 13 -16 -5 0 -20 10 -33 23 l-25 22 12 -22 c34
-67 121 -52 146 25 6 21 8 22 19 7 6 -9 29 -18 50 -20 21 -2 40 -5 42 -7 2 -2
-6 -18 -16 -36 l-20 -32 -114 0 c-123 0 -145 -8 -147 -53 -1 -15 -5 -10 -13
16 -15 48 -30 48 -34 0 -5 -58 -17 -59 -31 -3 -17 65 -28 70 -36 18 -4 -24
-12 -46 -18 -50 -6 -4 -8 -10 -4 -15 11 -10 27 17 27 45 0 37 15 25 28 -23 15
-55 29 -58 37 -7 10 59 12 60 24 14 12 -42 31 -49 31 -11 0 37 19 59 51 59
l31 0 -28 -32 c-43 -51 -74 -137 -39 -108 14 11 14 10 5 -14 -13 -34 -13 -136
-1 -136 5 0 11 10 13 23 3 18 7 14 26 -25 13 -25 30 -52 38 -58 12 -10 14 -8
14 14 l0 27 32 -22 c17 -12 40 -23 52 -24 16 -1 25 -15 39 -61 15 -48 17 -76
12 -151 -8 -104 6 -126 25 -40 25 116 24 177 -4 258 -14 41 -26 84 -26 95 0
30 27 62 70 84 21 11 41 28 43 37 3 10 5 -11 6 -47 2 -82 9 -110 27 -103 8 3
14 0 14 -6 0 -16 49 -91 59 -91 5 0 7 10 3 22 l-5 22 28 -22 c29 -23 65 -29
65 -12 0 13 52 1 62 -14 4 -6 14 -43 23 -83 14 -61 14 -81 4 -132 -13 -60 -10
-79 10 -67 19 12 32 115 29 246 l-3 135 -30 5 c-46 8 -59 44 -44 125 7 36 15
65 19 65 3 0 11 -27 18 -59 31 -149 136 -285 284 -366 99 -55 125 -90 93 -125
-38 -42 -261 -80 -470 -80 -182 0 -482 16 -580 31 -81 12 -165 37 -165 49 0
13 25 29 68 44 46 17 51 13 25 -17 -20 -22 -2 -16 28 10 9 8 39 23 65 33 l49
19 -70 0 c-38 -1 -81 -5 -95 -9 l-25 -8 25 -2 c19 -1 14 -5 -21 -16 -81 -24
-90 -61 -22 -89 150 -64 813 -86 1057 -36 118 24 151 38 168 69 22 41 -15 89
-108 139 -186 102 -294 277 -300 488 -1 55 -5 125 -9 155 -4 30 -7 64 -8 75
-1 11 -10 31 -19 45 -10 13 -18 32 -18 42 0 9 -4 19 -9 22 -5 3 -22 30 -39 59
-16 28 -39 60 -50 70 -17 15 -19 24 -11 50 5 18 14 70 19 116 6 46 18 97 26
112 8 16 12 29 9 29 -3 0 0 10 6 23 12 21 24 68 34 128 2 14 13 47 24 72 11
26 18 47 15 47 -3 0 -54 -32 -114 -70 -100 -66 -140 -79 -140 -48 0 6 -11 8
-24 6 -17 -4 -23 -1 -19 9 8 19 -8 16 -79 -15 l-63 -29 1 89 c1 48 -2 88 -5
87 -3 -1 -27 -25 -53 -53z m242 -429 c13 -24 13 -28 -6 -54 -39 -52 -104 -35
-104 28 0 16 9 38 19 48 26 26 70 15 91 -22z m-294 -12 c19 -30 11 -81 -16
-95 -24 -13 -26 -13 -44 6 -16 15 -23 94 -9 107 15 16 53 6 69 -18z"/>
<path d="M1052 1773 c-7 -2 -17 -14 -24 -26 -10 -20 -10 -21 7 -7 17 14 17 13
9 -10 -15 -46 -11 -127 6 -100 5 7 9 2 12 -14 7 -33 -5 -33 -38 2 -15 15 -23
20 -19 12 26 -51 69 -65 100 -34 21 22 12 104 -17 152 -11 17 -20 32 -21 31
-1 0 -8 -3 -15 -6z"/>
<path d="M982 1701 c-7 -19 -12 -51 -12 -72 0 -42 22 -63 95 -91 30 -12 43
-24 52 -49 11 -32 12 -32 12 -8 1 32 -8 40 -88 80 -59 30 -61 32 -61 70 0 22
5 49 11 60 6 11 9 25 6 32 -2 6 -9 -4 -15 -22z"/>
<path d="M1174 1678 c-4 -6 -3 -8 2 -5 6 3 10 -9 10 -28 0 -19 -3 -30 -7 -24
-9 15 -20 -17 -13 -36 6 -14 8 -13 19 2 11 15 13 15 19 -5 14 -43 23 -12 13
42 -10 53 -29 77 -43 54z"/>
</g>
</svg>
